<?xml version="1.0" encoding="UTF-8" standalone="no"?>
<svg xmlns="http://www.w3.org/2000/svg" version="1" width="645pt" height="471pt" viewBox="0 0 645 471" preserveAspectRatio="xMidYMid meet">
  <g transform="matrix(0.1,0,0,-0.1,0,471)" fill="#ffffff" stroke="none">
    <path d="M 430 4295 l 0 -395 l 410 0 l 410 0 l 0 395 l 0 395 l -410 0 l -410 0 l 0 -395 z m 613 245 c 14 -24 -166 -380 -193 -380 c -26 0 -142 138 -138 165 c 6 40 43 29 86 -25 l 41 -52 l 72 144 c 39 79 76 149 82 156 c 13 16 37 12 50 -8 z m -183 -49 c 19 -36 -11 -51 -106 -51 l -84 0 l 0 -165 l 0 -165 l 165 0 l 165 0 l 0 88 c 0 105 17 134 54 96 c 20 -20 23 -223 4 -242 c -17 -17 -429 -17 -446 0 c -17 17 -17 429 0 446 c 8 8 50 12 125 12 c 101 0 113 -2 123 -19 z"></path>
    <path d="M 1490 3254 l 0 -1396 l 38 7 c 137 26 392 56 557 66 l 195 12 l 0 686 c 0 408 4 681 9 676 c 5 -6 145 -332 312 -726 l 302 -715 l 91 -23 c 152 -39 369 -114 607 -210 c 124 -50 264 -100 310 -110 c 67 -16 243 -41 286 -41 c 5 0 184 416 398 925 c 215 509 393 925 398 925 c 4 0 7 -436 7 -968 l 0 -969 l 113 -23 c 240 -49 429 -129 539 -229 c 53 -48 118 -139 118 -166 c 0 -6 -28 16 -63 50 c -137 132 -334 205 -552 205 c -44 0 -97 -3 -117 -6 c -34 -6 -38 -10 -38 -35 c 0 -16 2 -29 4 -29 c 2 0 33 7 68 16 c 202 53 435 -17 578 -173 c 42 -46 85 -120 128 -223 c 8 -18 11 549 11 1923 l 1 1947 l -536 -2 l -535 -3 l -534 -1285 c -293 -707 -538 -1291 -543 -1299 c -6 -11 -32 41 -91 180 c -45 107 -292 691 -549 1299 l -467 1105 l -523 3 l -522 2 l 0 -1396 z"></path>
    <path d="M 420 2264 l 0 -1436 l 31 58 c 68 130 187 229 334 280 c 131 45 289 37 428 -21 c 16 -7 17 12 17 309 l 0 316 l -22 -4 c -375 -82 -492 -106 -495 -103 c -3 4 248 73 430 118 l 87 21 l 0 949 l 0 949 l -405 0 l -405 0 l 0 -1436 z"></path>
    <path d="M 1930 1869 c -112 -8 -342 -36 -400 -48 l -35 -7 l -3 -454 c -3 -451 -3 -456 20 -527 l 23 -73 l 373 0 l 372 0 l 0 560 l 0 560 l -122 -1 c -68 -1 -170 -5 -228 -10 z"></path>
    <path d="M 2955 1744 c 8 -22 39 -94 67 -160 l 52 -122 l 245 -8 c 406 -13 438 -12 454 11 c 14 18 7 22 -182 98 c -205 82 -549 201 -614 213 l -38 6 l 16 -38 z"></path>
    <path d="M 3080 1448 c 0 -2 65 -156 144 -343 l 144 -340 l 268 0 l 268 0 l 137 325 l 138 325 l -32 7 c -18 3 -77 11 -131 17 c -94 11 -103 10 -152 -10 l -53 -22 l -328 22 c -307 20 -403 25 -403 19 z"></path>
    <path d="M 5000 1305 c 0 -50 -5 -48 62 -29 c 12 4 65 9 117 13 l 96 6 l -115 23 c -63 12 -125 25 -137 27 c -21 5 -23 2 -23 -40 z"></path>
    <path d="M 863 1110 c -117 -21 -235 -85 -327 -176 c -49 -49 -116 -143 -116 -164 c 0 -7 129 -10 405 -10 l 406 0 l -3 152 l -3 152 l -75 24 c -85 26 -209 36 -287 22 z"></path>
    <path d="M 5120 1109 c -25 -4 -62 -13 -82 -19 l -38 -11 l 0 -159 l 0 -160 l 385 0 l 386 0 l -15 28 c -115 223 -399 366 -636 321 z"></path>
    <path d="M 1492 791 c 2 -14 9 -26 16 -29 c 17 -5 15 10 -3 34 c -15 18 -15 18 -13 -5 z"></path>
    <path d="M 1970 409 c -77 -23 -110 -81 -110 -191 c 1 -136 55 -198 175 -198 c 122 0 174 62 175 203 c 0 91 -23 148 -69 172 c -39 19 -127 27 -171 14 z m 130 -86 c 19 -25 21 -38 18 -106 c -4 -91 -16 -107 -83 -107 c -56 0 -77 24 -83 94 c -8 98 22 144 95 145 c 23 1 37 -6 53 -26 z"></path>
    <path d="M 3480 409 c -40 -12 -76 -42 -96 -82 c -22 -42 -20 -179 3 -225 c 52 -102 245 -111 305 -14 c 33 53 38 185 9 244 c -11 24 -34 51 -49 60 c -37 22 -126 31 -172 17 z m 125 -84 c 22 -21 25 -33 25 -90 c 0 -64 -11 -102 -34 -117 c -6 -4 -30 -8 -53 -8 c -59 0 -83 32 -83 111 c 0 32 5 69 11 83 c 23 49 95 61 134 21 z"></path>
    <path d="M 4837 404 c -37 -11 -53 -24 -75 -56 c -24 -37 -27 -51 -27 -127 c 0 -68 4 -93 20 -121 c 27 -46 94 -80 157 -80 c 118 0 178 69 178 205 c 0 104 -37 163 -115 184 c -51 14 -79 13 -138 -5 z m 134 -73 c 22 -17 24 -27 24 -99 c 0 -98 -15 -122 -80 -122 c -66 0 -79 16 -83 103 c -3 45 1 83 8 96 c 22 42 92 53 131 22 z"></path>
    <path d="M 6196 411 c -55 -12 -86 -50 -86 -106 c 0 -36 5 -48 30 -69 c 17 -14 47 -28 68 -32 c 107 -18 107 -19 110 -47 c 5 -39 -30 -50 -116 -37 c -96 14 -92 15 -92 -30 c 0 -39 1 -39 52 -55 c 68 -20 145 -19 188 3 c 68 33 89 137 39 190 c -20 23 -77 42 -122 42 c -39 0 -67 17 -67 40 c 0 26 35 34 121 27 l 69 -6 l 0 40 l 0 39 l -42 0 c -24 0 -59 2 -78 4 c -19 3 -53 1 -74 -3 z"></path>
    <path d="M 26 225 c -4 -102 -4 -190 -1 -195 c 4 -6 24 -10 46 -10 l 39 0 l 0 195 l 0 195 l -38 0 l -39 0 l -7 -185 z"></path>
    <path d="M 500 215 l 0 -195 l 45 0 l 45 0 l 0 148 l 0 147 l 73 -145 l 72 -145 l 58 -3 l 57 -3 l 0 196 l 0 195 l -45 0 l -45 0 l 0 -137 l -1 -138 l -67 135 l -67 135 l -62 3 l -63 3 l 0 -196 z"></path>
    <path d="M 1240 215 l 0 -195 l 40 0 l 40 0 l 0 85 l 0 85 l 91 0 l 90 0 l -3 33 l -3 32 l -87 3 l -88 3 l 0 44 l 0 45 l 95 0 l 95 0 l 0 30 l 0 30 l -135 0 l -135 0 l 0 -195 z"></path>
    <path d="M 2582 218 l 3 -193 l 43 -3 l 42 -3 l 0 148 l 1 148 l 29 -65 c 43 -95 43 -95 87 -98 l 40 -3 l 34 77 l 34 77 l 5 -139 l 5 -139 l 43 -3 l 42 -3 l 0 195 l 0 196 l -61 0 l -60 0 l -36 -80 c -20 -44 -40 -80 -45 -80 c -5 0 -26 36 -45 80 l -36 80 l -64 0 l -63 0 l 2 -192 z"></path>
    <path d="M 4070 375 l 0 -35 l 55 0 l 54 0 l 3 -157 l 3 -158 l 43 -3 l 42 -3 l 0 160 l 0 161 l 60 0 l 60 0 l 0 35 l 0 35 l -160 0 l -160 0 l 0 -35 z"></path>
    <path d="M 5460 215 l 0 -195 l 40 0 l 40 0 l 0 80 l 0 80 l 38 0 c 37 0 37 0 67 -78 l 31 -77 l 47 -3 c 26 -2 47 -1 47 2 c 0 3 -16 40 -35 83 c -35 75 -35 78 -17 93 c 29 22 42 54 42 100 c 0 89 -36 110 -190 110 l -110 0 l 0 -195 z m 208 95 c 5 -44 -17 -60 -80 -60 l -48 0 l 0 50 l 0 51 l 63 -3 l 62 -3 l 3 -35 z"></path>
  </g>
</svg>
